<svg id="Layer_1" data-name="Layer 1" xmlns="http://www.w3.org/2000/svg" viewBox="0 0 103 80"><defs><style>.cls-1{fill:#4a6da7;}.cls-2{fill:#fff;}</style></defs><title>jworgSiteLogo</title><rect class="cls-1" width="80" height="80"/><path class="cls-2" d="M96.56,72.36a5.53,5.53,0,0,0-2.93-2.93,5.54,5.54,0,0,0-4.28,0,5.55,5.55,0,0,0-2.92,2.93,5.57,5.57,0,0,0,0,4.29,5.57,5.57,0,0,0,1.18,1.75,5.67,5.67,0,0,0,1.74,1.17,5.54,5.54,0,0,0,4.28,0,5.71,5.71,0,0,0,1.75-1.17,5.57,5.57,0,0,0,1.18-1.75,5.45,5.45,0,0,0,0-4.29Zm-.71,4a4.85,4.85,0,0,1-2.52,2.52,4.72,4.72,0,0,1-1.84.37,4.67,4.67,0,0,1-1.83-.37,4.94,4.94,0,0,1-1.49-1,4.86,4.86,0,0,1-1-1.5,4.74,4.74,0,0,1,0-3.67,4.79,4.79,0,0,1,1-1.51,4.94,4.94,0,0,1,1.49-1,4.67,4.67,0,0,1,1.83-.37,4.72,4.72,0,0,1,1.84.37,4.86,4.86,0,0,1,1.5,1,4.79,4.79,0,0,1,1,1.51,4.74,4.74,0,0,1,0,3.67Z"/><path class="cls-2" d="M92.53,75.09a1.86,1.86,0,0,0,.82-.55,1.62,1.62,0,0,0,.35-1.09,1.54,1.54,0,0,0-.19-.79A1.64,1.64,0,0,0,93,72.1a2,2,0,0,0-.69-.32,3.18,3.18,0,0,0-.82-.11h-2.1v5.7h1.12V75.26h.86l1.66,2.11h1.36ZM92.23,74a1.47,1.47,0,0,1-.81.2h-.89v-1.5h.93a1.37,1.37,0,0,1,.77.19.64.64,0,0,1,.28.56A.62.62,0,0,1,92.23,74Z"/><path class="cls-2" d="M22.71,41.07c2.6,0,4.51-.79,5.73-2.39a10.29,10.29,0,0,0,1.83-6.41v-19H26.72V32.35a6.77,6.77,0,0,1-1.09,4.07,3.66,3.66,0,0,1-3.15,1.5,6.46,6.46,0,0,1-2.79-.61A13.24,13.24,0,0,1,17.1,35.7l-1.52,2.8a14.76,14.76,0,0,0,3.06,1.83,9.84,9.84,0,0,0,4.07.74"/><path class="cls-2" d="M39.94,40.8h3l6.5-20.59L55.35,40.8h3.08l6.71-27.54H61.48S57.1,33.14,56.81,34.18L51,14.31H48l-6.1,19.87L37.52,13.26H33.7Z"/><path class="cls-2" d="M31.59,53a9,9,0,0,0-1.66-3,7.34,7.34,0,0,0-2.55-1.94,7.57,7.57,0,0,0-3.25-.69,7.76,7.76,0,0,0-3.29.69A7.29,7.29,0,0,0,18.27,50a9.28,9.28,0,0,0-1.67,3,12.42,12.42,0,0,0-.6,4,14,14,0,0,0,.53,3.94A9.09,9.09,0,0,0,18.1,64a7,7,0,0,0,2.53,2,8.12,8.12,0,0,0,3.47.71A7.83,7.83,0,0,0,27.48,66,7.17,7.17,0,0,0,30,64a9.21,9.21,0,0,0,1.61-3.08,13.34,13.34,0,0,0,.56-4A12.49,12.49,0,0,0,31.59,53Zm-1.94,7.21a8.07,8.07,0,0,1-1.24,2.53,5.71,5.71,0,0,1-1.89,1.65,5,5,0,0,1-2.39.58,5.12,5.12,0,0,1-2.46-.6,5.67,5.67,0,0,1-1.9-1.66,7.85,7.85,0,0,1-1.23-2.53A11.61,11.61,0,0,1,18.11,57a11.05,11.05,0,0,1,.42-3.12,7.85,7.85,0,0,1,1.21-2.48,5.94,5.94,0,0,1,1.9-1.64,5.34,5.34,0,0,1,4.92,0,5.66,5.66,0,0,1,1.89,1.66,8.13,8.13,0,0,1,1.21,2.49A10.64,10.64,0,0,1,30.1,57,10.94,10.94,0,0,1,29.65,60.22Z"/><path class="cls-2" d="M43.51,58.28l.33-.08a7,7,0,0,0,1.69-.63,5,5,0,0,0,1.35-1,4.74,4.74,0,0,0,.91-1.47,5.86,5.86,0,0,0-.18-4.38A4.8,4.8,0,0,0,46.21,49a6.12,6.12,0,0,0-2.05-1,9,9,0,0,0-2.45-.33H35.57V66.4h2V58.57h3.78l4.93,7.83h2.43Zm-5.93-1.44V49.41h4a4.86,4.86,0,0,1,3.16,1A3.4,3.4,0,0,1,46,53.2a3.22,3.22,0,0,1-1.25,2.71,5.47,5.47,0,0,1-3.38.93Z"/><path class="cls-2" d="M60.9,66.49A10.26,10.26,0,0,0,62.52,66a6.93,6.93,0,0,0,1.32-.73,9.45,9.45,0,0,0,1-.76v-8H58.43v1.7h4.45v5.39l-.08.07a6.22,6.22,0,0,1-1.45.89A5.32,5.32,0,0,1,59.1,65a5.58,5.58,0,0,1-2.54-.58,6,6,0,0,1-2-1.62,7.49,7.49,0,0,1-1.33-2.49,10.45,10.45,0,0,1-.47-3.21,10.29,10.29,0,0,1,.47-3.17,8.36,8.36,0,0,1,1.31-2.5,6.26,6.26,0,0,1,2-1.65,5.29,5.29,0,0,1,2.41-.58,5.7,5.7,0,0,1,2.66.59A10.62,10.62,0,0,1,63.44,51l1.19-1.58a9.94,9.94,0,0,0-2.47-1.47A8.68,8.68,0,0,0,59,47.4a7.89,7.89,0,0,0-3.39.72,8.06,8.06,0,0,0-2.65,2,9.44,9.44,0,0,0-1.74,3A11.55,11.55,0,0,0,50.55,57a12.51,12.51,0,0,0,.61,4A8.72,8.72,0,0,0,52.87,64a7.65,7.65,0,0,0,2.67,2,9.06,9.06,0,0,0,5.36.49Z"/><rect class="cls-2" x="11.8" y="63.6" width="2.8" height="2.8"/></svg>