<?xml version="1.0" encoding="utf-8"?>
<!-- Generator: Adobe Illustrator 21.0.0, SVG Export Plug-In . SVG Version: 6.00 Build 0)  -->
<svg version="1.1" id="Camada_1" xmlns="http://www.w3.org/2000/svg" xmlns:xlink="http://www.w3.org/1999/xlink" x="0px" y="0px"
	 viewBox="0 0 700 862" style="enable-background:new 0 0 700 862;" xml:space="preserve">
<style type="text/css">
	.st0{fill:#5a5a5a;}
	.st1{fill:#FFAF27;}
</style>
<g id="Symbol">
	<path class="st0" d="M74.4,758.7c-4.5-14.8-10-39.5-6.9-69.9c3.9-38.4,19.3-66.2,28.3-80c-3.4-4.7-7.8-12.1-10.7-22
		c-3.4-11.6-3.1-21.6-2.5-27.7C78.4,565,73,573,67.5,583c-4.9,8.8-8.5,16.5-10.1,20.2c-6.5,15-12.6,38.3-12.6,63
		C44.8,712,65.9,746.3,74.4,758.7z"/>
	<path class="st1" d="M73.8,758.1c-9.8-14.6-27.5-45.4-29-86.9c-1.9-53.2,23.8-91.3,37.8-112.1c29.1-43.3,66.3-67.1,93.2-84.4
		c32.9-21.1,40.7-19.2,75.6-44.1c47.2-33.6,59.3-55.9,64.3-66.8c5.2-11.3,17.6-38.5,6.3-64.3c-4.8-10.9-12.1-17.6-15.1-20.2
		c-3.5-3-19.7-15.8-55.4-13.9c-69.9,3.8-133.5,54.2-133.5,54.2C45,377.3,19.6,452.5,14.6,468.4C6.7,493-17.7,580.6,22.1,676.2
		C38,714.2,59,741.5,73.8,758.1z"/>
	<path class="st1" d="M393.8,848.8c-51.6,11.6-101.7-1.5-127.2-35.3c-14.9-19.7-17.2-40.8-17.6-45.4c-4.5-48.9,35-86.4,52.9-103.3
		c14.7-13.9,28.3-22.3,55.4-39.1c35.5-21.9,43.6-21.7,71.8-40.3c14.8-9.8,37.5-24.8,59.2-49.1c3.1-3.5,35.8-40.6,47.9-81.9
		c26.7-91.1-48.8-195.6-93.2-257c-23.8-32.9-46.1-56.8-68-105.8c-16.5-36.8-24.6-69.5-29-92c-39.1,54.1-41,99-40.3,118.4
		c1.6,43.6,21.6,82.4,49.1,136.1c14.6,28.5,28.8,50.7,30.2,85.7c0.3,8.2,1,30.4-8.8,54.2c-15.5,37.5-48,56.4-69.3,69.3
		c-91.4,55.4-141.4,85.6-178.9,134.8c-16.4,21.5-49,65.8-42.8,120.9c3.4,29.9,17.2,51.9,22.7,60.5c28.4,44.2,71.1,60.5,90.7,68
		c39.9,15.3,73.8,14.5,105.8,13.9C341.7,860.6,372.5,854.4,393.8,848.8z"/>
	<path class="st0" d="M558.8,401.6c0.8,17.9-0.4,45.8-12.6,76.9c-6,15.4-13.4,28-20.2,37.8c2.8,5.3,6.2,13.5,7.6,23.9c2,15.3-1.5,27.6-3.8,34
		c9.7-11.9,21.1-28.7,30.2-50.4c15.2-36,16.9-68.5,16.4-88.2C570.6,424.3,564.7,412.9,558.8,401.6z"/>
	<path class="st1" d="M576.5,435.6c10.9,23.6,25.6,63.4,27.7,114.6c1.1,27,0,91.3-37.8,158.7c-4.9,8.7-38,66.2-100.8,104.6
		c-15.9,9.7-42.2,23.3-74.3,22.7c-21.6-0.4-32.2-7-36.5-10.1c-15.5-11-20.3-27.4-21.4-31.5c-8.6-31,11.5-60,21.4-74.3
		c10.7-15.5,22.1-25.7,39.1-39.1c46.6-36.8,60.3-38.6,88.2-60.5c16.6-13,60.3-48.1,81.9-107.1C575.4,482.2,576.9,454,576.5,435.6z"
		/>
</g>
</svg>
