<?xml version="1.0" encoding="utf-8"?>
<!-- Generator: Adobe Illustrator 21.0.0, SVG Export Plug-In . SVG Version: 6.00 Build 0)  -->
<svg version="1.1" id="Camada_1" xmlns="http://www.w3.org/2000/svg" xmlns:xlink="http://www.w3.org/1999/xlink" x="0px" y="0px"
	 viewBox="0 0 897 63" style="enable-background:new 0 0 897 63;" xml:space="preserve">
<style type="text/css">
	.st0{fill:#FFAF27;}
	.st1{fill:#5A5A5A;}
</style>
<path class="st0" d="M110.8,31.9c0,3.3-0.5,6.7-1.6,10.2c-1.1,3.4-2.6,6.6-4.7,9.4c-2,2.8-4.5,5.1-7.4,7c-2.9,1.9-6.2,2.9-9.9,3.1
	H6.7c-1.8,0-3.3-0.6-4.6-1.9c-1.3-1.3-1.9-2.8-1.9-4.6V8.8c0-1.8,0.6-3.3,1.9-4.6C3.4,3,4.9,2.3,6.7,2.3h79.1
	c3.9,0,7.4,0.9,10.4,2.7c3.1,1.8,5.7,4.1,7.9,7c2.2,2.8,3.8,6,5,9.5C110.2,25,110.8,28.5,110.8,31.9z M13.2,15.4v33.1H83
	c3.1,0,5.6-0.6,7.6-1.7c2-1.1,3.5-2.5,4.7-4.1c1.1-1.6,1.9-3.4,2.3-5.4c0.4-1.9,0.6-3.7,0.6-5.4c0-1.6-0.2-3.4-0.6-5.4
	c-0.4-1.9-1.2-3.7-2.3-5.4c-1.1-1.6-2.7-3-4.7-4.1c-2-1.1-4.5-1.7-7.6-1.7H13.2z"/>
<path class="st0" d="M131.5,60.9c-1.4,1.7-3.1,2.5-5.1,2.5c-1.8,0-3.4-0.6-4.7-1.9c-1.3-1.3-1.9-2.9-1.9-4.7c0-1.7,0.5-3,1.4-4
	l33.6-45.2c1.6-2.1,3.6-3.8,6.2-5.2c2.6-1.3,5.3-2,8.3-2c2.8,0,5.4,0.6,7.9,1.8c2.5,1.2,4.5,2.9,6.1,5l33.6,44.9
	c0.6,0.6,1,1.4,1.4,2.1c0.4,0.8,0.6,1.6,0.6,2.6c0,1.8-0.6,3.4-1.9,4.7c-1.3,1.3-2.9,1.9-4.7,1.9c-2.2,0-4-0.9-5.2-2.6l-32.2-43
	c-0.6-0.7-1.5-1.5-2.4-2.4c-1-0.9-2-1.3-3-1.3c-1,0-2,0.4-3,1.3c-1,0.9-1.7,1.7-2.3,2.4L131.5,60.9z"/>
<path class="st0" d="M318.7,4.3c1.3,1.3,1.9,2.8,1.9,4.6c0,1.8-0.6,3.3-1.9,4.6c-1.3,1.3-2.8,1.9-4.6,1.9H274v39.6
	c0,1.8-0.6,3.3-1.9,4.6c-1.3,1.3-2.8,1.9-4.6,1.9c-1.8,0-3.3-0.6-4.6-1.9c-1.3-1.3-1.9-2.8-1.9-4.6V15.4h-40.7
	c-1.6-0.2-3-0.9-4.2-2.1c-1.2-1.2-1.8-2.7-1.8-4.4c0-1.8,0.6-3.3,1.9-4.6c1.3-1.3,2.8-1.9,4.6-1.9h93.3C315.9,2.4,317.4,3,318.7,4.3
	z"/>
<path class="st0" d="M327.6,60.7c-1.4,1.6-3.1,2.5-5.1,2.5c-1.8,0-3.4-0.6-4.7-1.9c-1.3-1.3-1.9-2.8-1.9-4.7c0-1.6,0.5-3,1.4-4
	l33.4-44.9c1.6-2.1,3.6-3.8,6.2-5.1c2.6-1.3,5.3-2,8.2-2c2.7,0,5.4,0.6,7.8,1.8c2.5,1.2,4.5,2.8,6,4.9l33.4,44.6
	c0.5,0.6,1,1.4,1.4,2.1c0.4,0.8,0.5,1.6,0.5,2.5c0,1.8-0.6,3.4-1.9,4.7c-1.3,1.3-2.8,1.9-4.7,1.9c-2.2,0-3.9-0.9-5.2-2.6l-32-42.7
	c-0.6-0.7-1.4-1.5-2.4-2.4c-1-0.9-1.9-1.3-3-1.3c-1,0-2,0.4-3,1.3c-1,0.9-1.7,1.7-2.3,2.4L327.6,60.7z"/>
<path class="st1" d="M422.9,32.8c0-3.5,0.6-7,1.7-10.5c1.1-3.5,2.8-6.7,5-9.6c2.2-2.9,4.9-5.2,8-7.1c3.1-1.8,6.6-2.7,10.6-2.7h80.1
	c1.8,0,3.4,0.6,4.7,1.9c1.3,1.3,1.9,2.8,1.9,4.7c0,1.8-0.6,3.4-1.9,4.7c-1.3,1.3-2.8,1.9-4.7,1.9h-77.2c-3.2,0-5.8,0.6-7.8,1.7
	c-2,1.1-3.5,2.5-4.7,4.2c-1.1,1.6-1.9,3.5-2.3,5.4c-0.4,2-0.6,3.8-0.6,5.4c0,1.6,0.2,3.5,0.6,5.4c0.4,2,1.2,3.8,2.3,5.4
	c1.1,1.6,2.7,3,4.7,4.2c2,1.1,4.6,1.7,7.8,1.7h77.2c1.8,0,3.4,0.6,4.7,1.9c1.3,1.3,1.9,2.8,1.9,4.7c0,1.8-0.6,3.4-1.9,4.7
	c-1.3,1.3-2.8,1.9-4.7,1.9h-81.5c-3.8,0-7.1-0.9-10-2.7c-2.9-1.8-5.4-4.2-7.5-7.1c-2.1-2.9-3.6-6.1-4.7-9.7
	C423.4,39.7,422.9,36.2,422.9,32.8z"/>
<path class="st1" d="M656.2,31.9c0,3.5-0.6,7-1.7,10.5c-1.1,3.5-2.8,6.7-5,9.6c-2.2,2.9-4.9,5.3-8,7.1c-3.1,1.8-6.7,2.8-10.6,2.8
	h-62.8c-3.8-0.2-7.1-1.2-10.1-3.1c-2.9-1.9-5.4-4.2-7.5-7.1c-2.1-2.8-3.6-6-4.8-9.5c-1.1-3.5-1.7-6.9-1.7-10.3c0-3.5,0.6-7,1.7-10.5
	c1.1-3.5,2.8-6.7,5-9.6c2.2-2.9,4.9-5.3,8-7.1c3.1-1.8,6.7-2.8,10.6-2.8h62.8c3.8,0.2,7.1,1.2,10.1,3.1c2.9,1.9,5.4,4.2,7.5,7.1
	c2.1,2.8,3.7,6,4.8,9.5C655.7,25.1,656.2,28.5,656.2,31.9z M635.7,47c2-1.1,3.6-2.5,4.8-4.2c1.1-1.7,1.9-3.5,2.3-5.4
	c0.4-2,0.6-3.8,0.6-5.4c0-1.7-0.2-3.5-0.6-5.4c-0.4-2-1.2-3.8-2.3-5.4c-1.1-1.7-2.7-3.1-4.8-4.2c-2-1.1-4.6-1.7-7.7-1.7h-55.6
	c-3.2,0-5.8,0.6-7.8,1.7c-2,1.1-3.5,2.5-4.7,4.2c-1.1,1.7-1.9,3.5-2.3,5.4c-0.4,2-0.6,3.8-0.6,5.4c0,1.7,0.2,3.5,0.6,5.4
	c0.4,2,1.2,3.8,2.3,5.4c1.1,1.7,2.7,3.1,4.7,4.2c2,1.1,4.6,1.7,7.8,1.7H628C631.1,48.7,633.7,48.1,635.7,47z"/>
<path class="st1" d="M764.2,43.3c2.5,1.8,5.1,3.7,7.7,5.8c1,0.7,1.8,1.6,2.6,2.5c0.7,0.9,1.1,2.1,1.1,3.3c0,1.8-0.6,3.3-1.9,4.6
	c-1.3,1.3-2.8,1.9-4.6,1.9c-1.5,0-3.1-0.6-4.6-1.9c-3.7-2.7-7.5-5.3-11.4-7.8c-3.9-2.5-7.9-4.8-12.1-6.8c-4.2-2-8.5-3.6-13.1-4.7
	c-4.5-1.2-9.2-1.8-14.1-1.8h-26.9c-1.2,0.2-2.2,0.7-3,1.6c-0.8,0.9-1.2,2-1.2,3.4v11.5c0,1.8-0.7,3.3-2,4.6
	c-1.3,1.3-2.8,1.9-4.5,1.9c-1.8,0-3.3-0.6-4.6-1.9c-1.3-1.3-1.9-2.8-1.9-4.6v-13c0-2.3,0.4-4.4,1.3-6.4c0.9-2,2-3.8,3.5-5.3
	c1.4-1.5,3.2-2.7,5.1-3.5c2-0.9,4.1-1.3,6.5-1.3h71.7c1.4,0,2.5-0.5,3.6-1.4c1-0.9,1.6-2.1,1.6-3.6c0-1.4-0.5-2.5-1.6-3.5
	c-1-1-2.2-1.5-3.6-1.5h-81.6c-1.8,0-3.3-0.6-4.6-1.9c-1.3-1.3-1.9-2.8-1.9-4.6c0-1.8,0.6-3.3,1.9-4.6c1.3-1.3,2.8-1.9,4.6-1.9h81.1
	c2.5,0,4.9,0.5,7.1,1.4c2.2,0.9,4.1,2.2,5.8,3.9c1.7,1.6,3,3.5,3.9,5.7c0.9,2.2,1.4,4.5,1.4,7c0,2.5-0.5,4.9-1.4,7
	c-0.9,2.2-2.3,4.1-3.9,5.7c-1.7,1.6-3.6,2.9-5.8,3.9c-2.2,0.9-4.6,1.4-7.1,1.4h-0.5C759.2,39.9,761.7,41.6,764.2,43.3z"/>
<path class="st1" d="M788.3,8.5c0-1.8,0.6-3.4,1.9-4.7c1.3-1.3,2.8-1.9,4.7-1.9h97.5c1.8,0,3.4,0.6,4.7,1.9c1.3,1.3,1.9,2.8,1.9,4.7
	c0,1.8-0.6,3.4-1.9,4.7c-1.3,1.3-2.8,1.9-4.7,1.9h-97.5c-1.8,0-3.4-0.6-4.7-1.9C789,11.9,788.3,10.4,788.3,8.5z M805.1,61.9
	c-2,0-4-0.4-6-1.3c-2-0.9-3.8-2.1-5.4-3.6c-1.6-1.6-2.8-3.4-3.9-5.6c-1-2.2-1.5-4.7-1.5-7.4V31.5c0-2.5,0.7-4.1,2.1-4.9
	c1.4-0.8,3.6-1.2,6.7-1.2h92.3c1.8,0,3.4,0.6,4.7,1.9c1.3,1.3,1.9,2.8,1.9,4.7c0,1.8-0.6,3.4-1.9,4.7c-1.3,1.3-2.8,1.9-4.7,1.9
	h-87.9v6.7c0,0.9,0.4,1.7,1.2,2.4c0.8,0.7,1.8,1,3.1,1h86.6c1.8,0,3.4,0.6,4.7,1.9c1.3,1.3,1.9,2.8,1.9,4.7c0,1.8-0.6,3.4-1.9,4.7
	c-1.3,1.3-2.8,1.9-4.7,1.9H805.1z"/>
</svg>
