<svg width="633" height="27" viewBox="0 0 633 27" fill="none" xmlns="http://www.w3.org/2000/svg">
<path d="M10.1733 26.216C8.30134 26.216 6.50134 25.916 4.77334 25.316C3.06934 24.716 1.74934 23.924 0.813338 22.94L1.85734 20.888C2.76934 21.8 3.98134 22.544 5.49334 23.12C7.00534 23.672 8.56534 23.948 10.1733 23.948C12.4293 23.948 14.1213 23.54 15.2493 22.724C16.3773 21.884 16.9413 20.804 16.9413 19.484C16.9413 18.476 16.6293 17.672 16.0053 17.072C15.4053 16.472 14.6613 16.016 13.7733 15.704C12.8853 15.368 11.6493 15.008 10.0653 14.624C8.16934 14.144 6.65734 13.688 5.52934 13.256C4.40134 12.8 3.42934 12.116 2.61334 11.204C1.82134 10.292 1.42534 9.056 1.42534 7.496C1.42534 6.224 1.76134 5.072 2.43334 4.04C3.10534 2.984 4.13734 2.144 5.52934 1.52C6.92134 0.895999 8.64934 0.583999 10.7133 0.583999C12.1533 0.583999 13.5573 0.787999 14.9253 1.196C16.3173 1.58 17.5173 2.12 18.5253 2.816L17.6253 4.94C16.5693 4.244 15.4413 3.728 14.2413 3.392C13.0413 3.032 11.8653 2.852 10.7133 2.852C8.50534 2.852 6.83734 3.284 5.70934 4.148C4.60534 4.988 4.05334 6.08 4.05334 7.424C4.05334 8.432 4.35334 9.248 4.95334 9.872C5.57734 10.472 6.34534 10.94 7.25734 11.276C8.19334 11.588 9.44134 11.936 11.0013 12.32C12.8493 12.776 14.3373 13.232 15.4653 13.688C16.6173 14.12 17.5893 14.792 18.3813 15.704C19.1733 16.592 19.5693 17.804 19.5693 19.34C19.5693 20.612 19.2213 21.776 18.5253 22.832C17.8533 23.864 16.8093 24.692 15.3933 25.316C13.9773 25.916 12.2373 26.216 10.1733 26.216ZM88.9498 26.216C86.4538 26.216 84.1858 25.664 82.1458 24.56C80.1298 23.432 78.5458 21.896 77.3938 19.952C76.2658 18.008 75.7018 15.824 75.7018 13.4C75.7018 10.976 76.2658 8.792 77.3938 6.848C78.5458 4.904 80.1298 3.38 82.1458 2.276C84.1858 1.148 86.4538 0.583999 88.9498 0.583999C91.4458 0.583999 93.6898 1.136 95.6818 2.24C97.6978 3.344 99.2818 4.88 100.434 6.848C101.586 8.792 102.162 10.976 102.162 13.4C102.162 15.824 101.586 18.02 100.434 19.988C99.2818 21.932 97.6978 23.456 95.6818 24.56C93.6898 25.664 91.4458 26.216 88.9498 26.216ZM88.9498 23.84C90.9418 23.84 92.7418 23.396 94.3498 22.508C95.9578 21.596 97.2178 20.348 98.1298 18.764C99.0418 17.156 99.4978 15.368 99.4978 13.4C99.4978 11.432 99.0418 9.656 98.1298 8.072C97.2178 6.464 95.9578 5.216 94.3498 4.328C92.7418 3.416 90.9418 2.96 88.9498 2.96C86.9578 2.96 85.1458 3.416 83.5138 4.328C81.9058 5.216 80.6338 6.464 79.6978 8.072C78.7858 9.656 78.3298 11.432 78.3298 13.4C78.3298 15.368 78.7858 17.156 79.6978 18.764C80.6338 20.348 81.9058 21.596 83.5138 22.508C85.1458 23.396 86.9578 23.84 88.9498 23.84ZM160.693 0.799998H163.357V23.696H177.469V26H160.693V0.799998ZM244.147 26.216C240.883 26.216 238.339 25.28 236.515 23.408C234.691 21.536 233.779 18.812 233.779 15.236V0.799998H236.443V15.128C236.443 18.056 237.103 20.24 238.423 21.68C239.743 23.12 241.651 23.84 244.147 23.84C246.667 23.84 248.587 23.12 249.907 21.68C251.227 20.24 251.887 18.056 251.887 15.128V0.799998H254.479V15.236C254.479 18.812 253.567 21.536 251.743 23.408C249.943 25.28 247.411 26.216 244.147 26.216ZM319.471 3.104H310.615V0.799998H330.991V3.104H322.135V26H319.471V3.104ZM387.807 0.799998H390.471V26H387.807V0.799998ZM462.246 26.216C459.75 26.216 457.482 25.664 455.442 24.56C453.426 23.432 451.842 21.896 450.69 19.952C449.562 18.008 448.998 15.824 448.998 13.4C448.998 10.976 449.562 8.792 450.69 6.848C451.842 4.904 453.426 3.38 455.442 2.276C457.482 1.148 459.75 0.583999 462.246 0.583999C464.742 0.583999 466.986 1.136 468.978 2.24C470.994 3.344 472.578 4.88 473.73 6.848C474.882 8.792 475.458 10.976 475.458 13.4C475.458 15.824 474.882 18.02 473.73 19.988C472.578 21.932 470.994 23.456 468.978 24.56C466.986 25.664 464.742 26.216 462.246 26.216ZM462.246 23.84C464.238 23.84 466.038 23.396 467.646 22.508C469.254 21.596 470.514 20.348 471.426 18.764C472.338 17.156 472.794 15.368 472.794 13.4C472.794 11.432 472.338 9.656 471.426 8.072C470.514 6.464 469.254 5.216 467.646 4.328C466.038 3.416 464.238 2.96 462.246 2.96C460.254 2.96 458.442 3.416 456.81 4.328C455.202 5.216 453.93 6.464 452.994 8.072C452.082 9.656 451.626 11.432 451.626 13.4C451.626 15.368 452.082 17.156 452.994 18.764C453.93 20.348 455.202 21.596 456.81 22.508C458.442 23.396 460.254 23.84 462.246 23.84ZM555.049 0.799998V26H552.853L536.653 5.552V26H533.989V0.799998H536.185L552.421 21.248V0.799998H555.049ZM622.782 26.216C620.91 26.216 619.11 25.916 617.382 25.316C615.678 24.716 614.358 23.924 613.422 22.94L614.466 20.888C615.378 21.8 616.59 22.544 618.102 23.12C619.614 23.672 621.174 23.948 622.782 23.948C625.038 23.948 626.73 23.54 627.858 22.724C628.986 21.884 629.55 20.804 629.55 19.484C629.55 18.476 629.238 17.672 628.614 17.072C628.014 16.472 627.27 16.016 626.382 15.704C625.494 15.368 624.258 15.008 622.674 14.624C620.778 14.144 619.266 13.688 618.138 13.256C617.01 12.8 616.038 12.116 615.222 11.204C614.43 10.292 614.034 9.056 614.034 7.496C614.034 6.224 614.37 5.072 615.042 4.04C615.714 2.984 616.746 2.144 618.138 1.52C619.53 0.895999 621.258 0.583999 623.322 0.583999C624.762 0.583999 626.166 0.787999 627.534 1.196C628.926 1.58 630.126 2.12 631.134 2.816L630.234 4.94C629.178 4.244 628.05 3.728 626.85 3.392C625.65 3.032 624.474 2.852 623.322 2.852C621.114 2.852 619.446 3.284 618.318 4.148C617.214 4.988 616.662 6.08 616.662 7.424C616.662 8.432 616.962 9.248 617.562 9.872C618.186 10.472 618.954 10.94 619.866 11.276C620.802 11.588 622.05 11.936 623.61 12.32C625.458 12.776 626.946 13.232 628.074 13.688C629.226 14.12 630.198 14.792 630.99 15.704C631.782 16.592 632.178 17.804 632.178 19.34C632.178 20.612 631.83 21.776 631.134 22.832C630.462 23.864 629.418 24.692 628.002 25.316C626.586 25.916 624.846 26.216 622.782 26.216Z" fill="#878787"/>
</svg>
